<mxfile host="app.diagrams.net" modified="2023-09-28T02:39:15.205Z" agent="Mozilla/5.0 (Windows NT 10.0; Win64; x64) AppleWebKit/537.36 (KHTML, like Gecko) Chrome/116.0.0.0 Safari/537.36" version="21.7.4" etag="XP89slj1kdtchcit7QFr" type="github">
  <diagram name="PÃ¡gina-1" id="USJpPTp4MPg-gaxP55RP">
    <mxGraphModel>
      <root>
        <mxCell id="0" />
        <mxCell id="1" parent="0" />
      </root>
    </mxGraphModel>
  </diagram>
</mxfile>
